<svg xmlns="http://www.w3.org/2000/svg" viewBox="0 0 96 120" fill="none">
  <rect width="96" height="120" rx="18" fill="#E8F0FF"/>
  <rect x="8" y="8" width="80" height="104" rx="14" fill="url(#bg)"/>
  <circle cx="48" cy="40" r="18" fill="#F7FAFF"/>
  <path d="M24 96c0-15.464 10.745-28 24-28s24 12.536 24 28v8H24v-8Z" fill="#F7FAFF"/>
  <path d="M35 38c2.2-11.333 10.267-17 24.2-17 2.738 0 5.338.355 7.8 1.065-4.662-6.71-12.199-10.065-22.611-10.065-12.41 0-21.54 8.102-23.389 20.56.959 2.072 2.293 3.885 4 5.44Z" fill="#8BA9E8"/>
  <circle cx="40" cy="40" r="2.4" fill="#8BA9E8"/>
  <circle cx="56" cy="40" r="2.4" fill="#8BA9E8"/>
  <path d="M39 50c2.076 2.667 5.076 4 9 4s6.924-1.333 9-4" stroke="#8BA9E8" stroke-linecap="round" stroke-width="2.5"/>
  <defs>
    <linearGradient id="bg" x1="18" x2="86" y1="14" y2="106" gradientUnits="userSpaceOnUse">
      <stop stop-color="#DCE8FF"/>
      <stop offset="1" stop-color="#BED2FF"/>
    </linearGradient>
  </defs>
</svg>
