<svg width="880" height="880" viewBox="0 0 880 880" fill="none" xmlns="http://www.w3.org/2000/svg">
  <defs>
    <linearGradient id="bg" x1="128" y1="88" x2="754" y2="792" gradientUnits="userSpaceOnUse">
      <stop stop-color="#F7FAFF"/>
      <stop offset="1" stop-color="#E8F0FF"/>
    </linearGradient>
    <linearGradient id="panel" x1="194" y1="150" x2="686" y2="732" gradientUnits="userSpaceOnUse">
      <stop stop-color="#FFFFFF"/>
      <stop offset="1" stop-color="#F7FAFF"/>
    </linearGradient>
    <linearGradient id="accent" x1="214" y1="612" x2="514" y2="612" gradientUnits="userSpaceOnUse">
      <stop stop-color="#2F63FF"/>
      <stop offset="1" stop-color="#5F46FF"/>
    </linearGradient>
    <linearGradient id="cardBlue" x1="560" y1="194" x2="742" y2="314" gradientUnits="userSpaceOnUse">
      <stop stop-color="#2F63FF"/>
      <stop offset="1" stop-color="#6C7DFF"/>
    </linearGradient>
    <radialGradient id="glow" cx="0" cy="0" r="1" gradientUnits="userSpaceOnUse" gradientTransform="translate(642 246) rotate(90) scale(244)">
      <stop stop-color="#CFE0FF"/>
      <stop offset="1" stop-color="#CFE0FF" stop-opacity="0"/>
    </radialGradient>
    <filter id="shadow" x="132" y="132" width="616" height="600" filterUnits="userSpaceOnUse" color-interpolation-filters="sRGB">
      <feFlood flood-opacity="0" result="BackgroundImageFix"/>
      <feColorMatrix in="SourceAlpha" type="matrix" values="0 0 0 0 0 0 0 0 0 0 0 0 0 0 0 0 0 0 127 0" result="hardAlpha"/>
      <feOffset dy="24"/>
      <feGaussianBlur stdDeviation="28"/>
      <feColorMatrix type="matrix" values="0 0 0 0 0.0941176 0 0 0 0 0.184314 0 0 0 0 0.403922 0 0 0 0.12 0"/>
      <feBlend mode="normal" in2="BackgroundImageFix" result="effect1_dropShadow_1_1"/>
      <feBlend mode="normal" in="SourceGraphic" in2="effect1_dropShadow_1_1" result="shape"/>
    </filter>
  </defs>

  <rect width="880" height="880" rx="80" fill="url(#bg)"/>
  <circle cx="670" cy="206" r="196" fill="url(#glow)"/>
  <circle cx="252" cy="734" r="118" fill="#EFF4FF"/>
  <circle cx="752" cy="706" r="88" fill="#EEF3FF"/>

  <g filter="url(#shadow)">
    <rect x="188" y="144" width="504" height="520" rx="44" fill="url(#panel)"/>
    <rect x="188.75" y="144.75" width="502.5" height="518.5" rx="43.25" stroke="#E4EDFF" stroke-width="1.5"/>

    <rect x="224" y="184" width="432" height="74" rx="28" fill="#F3F7FF"/>
    <circle cx="262" cy="221" r="18" fill="#E5EEFF"/>
    <rect x="292" y="204" width="134" height="12" rx="6" fill="#D4E0F8"/>
    <rect x="292" y="225" width="92" height="10" rx="5" fill="#E2EAFB"/>
    <rect x="536" y="199" width="86" height="44" rx="22" fill="#2F63FF"/>
    <rect x="560" y="216" width="38" height="10" rx="5" fill="white" fill-opacity="0.86"/>

    <rect x="224" y="286" width="220" height="150" rx="30" fill="#F7FAFF"/>
    <rect x="224.75" y="286.75" width="218.5" height="148.5" rx="29.25" stroke="#E6EEFF" stroke-width="1.5"/>
    <rect x="254" y="320" width="92" height="12" rx="6" fill="#CBD8F3"/>
    <rect x="254" y="348" width="152" height="10" rx="5" fill="#DEE7F9"/>
    <rect x="254" y="375" width="126" height="10" rx="5" fill="#DEE7F9"/>
    <rect x="254" y="402" width="102" height="10" rx="5" fill="#DEE7F9"/>
    <circle cx="393" cy="382" r="24" fill="#EAF1FF"/>
    <path d="M393 367L402 382L393 397L384 382L393 367Z" fill="#2F63FF"/>

    <rect x="470" y="286" width="186" height="150" rx="30" fill="#F8FBFF"/>
    <rect x="470" y="286" width="186" height="150" rx="30" fill="url(#cardBlue)"/>
    <rect x="500" y="316" width="64" height="10" rx="5" fill="white" fill-opacity="0.78"/>
    <rect x="500" y="338" width="94" height="10" rx="5" fill="white" fill-opacity="0.28"/>
    <path d="M506 390C526 380.667 546.667 380.667 568 390C589.333 399.333 610 399.333 630 390" stroke="white" stroke-opacity="0.95" stroke-width="10" stroke-linecap="round"/>
    <path d="M506 378C524 349.333 545.667 338 571 344C596.333 350 616 337.333 630 306" stroke="white" stroke-opacity="0.72" stroke-width="10" stroke-linecap="round"/>

    <rect x="224" y="462" width="432" height="168" rx="34" fill="#FFFFFF"/>
    <rect x="224.75" y="462.75" width="430.5" height="166.5" rx="33.25" stroke="#E6EEFF" stroke-width="1.5"/>
    <rect x="252" y="498" width="262" height="22" rx="11" fill="#EEF4FF"/>
    <rect x="252" y="542" width="120" height="84" rx="24" fill="#F7FAFF"/>
    <rect x="384" y="542" width="120" height="84" rx="24" fill="#F7FAFF"/>
    <rect x="516" y="542" width="112" height="84" rx="24" fill="url(#accent)"/>
    <rect x="278" y="566" width="70" height="10" rx="5" fill="#CAD8F4"/>
    <rect x="278" y="588" width="54" height="10" rx="5" fill="#E1EAFB"/>
    <rect x="410" y="566" width="66" height="10" rx="5" fill="#CAD8F4"/>
    <rect x="410" y="588" width="42" height="10" rx="5" fill="#E1EAFB"/>
    <rect x="542" y="564" width="48" height="10" rx="5" fill="white" fill-opacity="0.72"/>
    <rect x="542" y="586" width="34" height="10" rx="5" fill="white" fill-opacity="0.42"/>
  </g>

  <g opacity="0.9">
    <rect x="118" y="216" width="116" height="132" rx="28" fill="#FFFFFF"/>
    <rect x="118.75" y="216.75" width="114.5" height="130.5" rx="27.25" stroke="#E5EDFF" stroke-width="1.5"/>
    <circle cx="152" cy="250" r="18" fill="#2F63FF"/>
    <rect x="180" y="240" width="24" height="8" rx="4" fill="#D3DFFA"/>
    <rect x="180" y="256" width="32" height="8" rx="4" fill="#E0E9FB"/>
    <rect x="142" y="292" width="68" height="10" rx="5" fill="#CFDCF7"/>
    <rect x="142" y="316" width="54" height="10" rx="5" fill="#E3EBFB"/>
  </g>

  <g opacity="0.88">
    <rect x="648" y="560" width="118" height="130" rx="28" fill="#FFFFFF"/>
    <rect x="648.75" y="560.75" width="116.5" height="128.5" rx="27.25" stroke="#E5EDFF" stroke-width="1.5"/>
    <circle cx="684" cy="598" r="18" fill="#E9F0FF"/>
    <rect x="714" y="590" width="24" height="8" rx="4" fill="#D1DDF8"/>
    <rect x="714" y="606" width="30" height="8" rx="4" fill="#E4ECFC"/>
    <rect x="676" y="642" width="62" height="10" rx="5" fill="#D0DCF8"/>
  </g>
</svg>
