<svg width="18" height="18" viewBox="0 0 18 18" fill="none" xmlns="http://www.w3.org/2000/svg">
  <path d="M6.125 8.25C7.6778 8.25 8.9375 6.9903 8.9375 5.4375C8.9375 3.8847 7.6778 2.625 6.125 2.625C4.5722 2.625 3.3125 3.8847 3.3125 5.4375C3.3125 6.9903 4.5722 8.25 6.125 8.25Z" fill="#1B3FF5"/>
  <path d="M11.875 7.875C13.2207 7.875 14.3125 6.78319 14.3125 5.4375C14.3125 4.09181 13.2207 3 11.875 3C10.5293 3 9.4375 4.09181 9.4375 5.4375C9.4375 6.78319 10.5293 7.875 11.875 7.875Z" fill="#8DA8FF"/>
  <path d="M1.875 13.6875C1.875 11.667 3.54296 10.0293 5.6004 10.0293H6.6496C8.70704 10.0293 10.375 11.667 10.375 13.6875C10.375 14.2358 9.92228 14.6875 9.375 14.6875H2.875C2.32772 14.6875 1.875 14.2358 1.875 13.6875Z" fill="#1B3FF5"/>
  <path d="M9.5 13.5C9.5 11.8969 10.7895 10.5977 12.38 10.5977H13.12C14.7105 10.5977 16 11.8969 16 13.5C16 14.0523 15.5523 14.5 15 14.5H10.5C9.94772 14.5 9.5 14.0523 9.5 13.5Z" fill="#8DA8FF"/>
</svg>
